<?xml version="1.0" encoding="UTF-8" standalone="no"?>
<svg
   xmlns:dc="http://purl.org/dc/elements/1.1/"
   xmlns:cc="http://creativecommons.org/ns#"
   xmlns:rdf="http://www.w3.org/1999/02/22-rdf-syntax-ns#"
   xmlns:svg="http://www.w3.org/2000/svg"
   xmlns="http://www.w3.org/2000/svg"
   xmlns:sodipodi="http://sodipodi.sourceforge.net/DTD/sodipodi-0.dtd"
   xmlns:inkscape="http://www.inkscape.org/namespaces/inkscape"
   version="1.1"
   id="Capa_1"
   x="0px"
   y="0px"
   viewBox="0 0 512.005 512.005"
   style="enable-background:new 0 0 512.005 512.005;"
   xml:space="preserve"
   sodipodi:docname="loupe.svg"
   inkscape:version="1.0.2 (1.0.2+r75+1)"><metadata
   id="metadata130"><rdf:RDF><cc:Work
       rdf:about=""><dc:format>image/svg+xml</dc:format><dc:type
         rdf:resource="http://purl.org/dc/dcmitype/StillImage" /></cc:Work></rdf:RDF></metadata><defs
   id="defs128" /><sodipodi:namedview
   pagecolor="#ffffff"
   bordercolor="#666666"
   borderopacity="1"
   objecttolerance="10"
   gridtolerance="10"
   guidetolerance="10"
   inkscape:pageopacity="0"
   inkscape:pageshadow="2"
   inkscape:window-width="1308"
   inkscape:window-height="704"
   id="namedview126"
   showgrid="false"
   inkscape:zoom="1.0019433"
   inkscape:cx="256.0025"
   inkscape:cy="216.08008"
   inkscape:window-x="58"
   inkscape:window-y="27"
   inkscape:window-maximized="1"
   inkscape:current-layer="g93" />
<g
   id="g93">
	<g
   id="g91"
   transform="translate(0.88475523,0.28901964)">
		<path
   d="m 505.749,475.587 -145.6,-145.6 C 388.352,295.15 405.333,250.883 405.333,202.67 405.333,90.926 314.41,0.003 202.666,0.003 90.922,0.003 0,90.925 0,202.669 c 0,111.744 90.923,202.667 202.667,202.667 48.213,0 92.48,-16.981 127.317,-45.184 l 145.6,145.6 c 4.16,4.16 9.621,6.251 15.083,6.251 5.462,0 10.923,-2.091 15.083,-6.251 8.341,-8.341 8.341,-21.824 -10e-4,-30.165 z M 202.667,362.669 c -88.235,0 -160,-71.765 -160,-160 0,-88.235 71.765,-160 160,-160 88.235,0 160,71.765 160,160 0,88.235 -71.766,160 -160,160 z"
   id="path89" />
	</g>
<path
   style="fill:#9aa0a6;stroke:none;stroke-width:0.99806;fill-opacity:1"
   d="m 485.05737,510.75497 c -2.6962,-0.80753 -20.57544,-18.09075 -78.36298,-75.7507 -41.17836,-41.08745 -75.31203,-74.69446 -75.85259,-74.68226 -0.54056,0.0122 -2.10565,0.9408 -3.47798,2.06356 -6.17089,5.04862 -24.30038,16.52143 -32.93599,20.84277 -19.82106,9.9186 -42.9462,17.20196 -63.87587,20.11794 -13.62152,1.89779 -42.87539,1.66707 -56.54446,-0.44596 C 87.004489,389.45097 18.511702,321.87333 4.0450993,235.20882 -0.9617845,205.21427 1.9038626,169.18948 11.640231,139.72846 16.248102,125.78563 27.35331,103.20013 35.541069,91.11953 82.79928,21.392583 165.81628,-12.24983 246.47302,5.6399302 c 38.49694,8.5386668 70.4975,26.0114598 98.43069,53.7446658 13.5439,13.446922 21.45859,23.175997 30.13426,37.042336 14.57213,23.290648 24.60848,50.797188 28.65273,78.528308 2.06394,14.15231 2.05894,40.69853 -0.0105,55.53555 -4.50884,32.327 -17.9783,65.53873 -37.02892,91.30241 l -6.55097,8.85939 74.35962,74.45772 c 40.89778,40.95175 75.07633,75.89508 75.95233,77.65186 3.73794,7.49632 1.09042,18.23631 -5.91993,24.01483 -5.84795,4.82037 -12.2484,6.13043 -19.43499,3.97797 z M 234.69515,360.41461 C 291.5371,348.83343 338.76443,306.85796 356.10129,252.50929 371.253,205.01081 364.27714,154.69852 336.87004,113.80688 316.66254,83.657115 287.56725,61.643361 253.02988,50.372658 221.37241,40.041764 184.36236,40.235272 152.46975,50.898439 82.797131,74.193197 37.078726,143.57547 43.741034,215.90518 c 2.144585,23.28281 6.404235,38.41257 16.627947,59.06047 8.06415,16.28643 18.848742,30.76492 32.930052,44.20915 25.630707,24.4711 54.661507,37.93789 93.837297,43.52918 7.57791,1.08155 38.26401,-0.39561 47.55882,-2.28937 z"
   id="path132" /><path
   style="fill:#9aa0a6;fill-opacity:1;stroke-width:0.99806"
   d="m 481.50244,507.26632 c -2.7474,-2.1717 -37.46308,-36.12758 -77.14594,-75.45752 -39.68287,-39.32994 -72.72758,-71.50899 -73.43269,-71.50899 -0.70512,0 -7.53486,4.17431 -15.17721,9.27625 -21.62168,14.43437 -40.5164,22.80947 -66.00613,29.2573 -29.13337,7.36952 -65.42681,7.12899 -95.36763,-0.63204 C 119.53477,389.17086 87.428356,370.81764 61.87992,345.32891 18.765479,302.31523 -2.6696678,243.91447 3.0570363,185.06404 5.5410578,159.53701 11.032869,139.79935 22.003495,116.97017 42.776523,73.742802 75.062455,41.51307 118.27016,20.871076 160.00898,0.93082576 206.6261,-3.7329802 251.58926,7.5331748 c 31.51857,7.8974202 57.62857,21.4459702 82.46564,42.7916282 37.2386,32.003883 60.99022,74.452887 68.69082,122.764537 1.88923,11.85258 2.15426,44.12474 0.46478,56.59641 -4.49432,33.17704 -19.57835,69.09148 -40.56135,96.57489 l -3.34873,4.38616 73.12112,73.46256 c 40.21662,40.40441 74.41474,75.16101 75.99584,77.23691 2.33829,3.07004 2.87472,4.76983 2.87472,9.10915 0,10.84609 -8.14387,19.55506 -19.02199,20.34191 -5.48904,0.39704 -6.01759,0.22371 -10.76767,-3.53101 z M 223.06651,362.25442 c 44.73194,-4.2289 89.52677,-32.07049 115.55063,-71.81884 10.84057,-16.55768 18.62266,-35.98389 22.88755,-57.13357 3.23501,-16.04245 3.21564,-46.31464 -0.0393,-61.4095 C 353.96776,137.12193 338.59823,109.42149 313.76153,85.916099 270.22462,44.712859 207.00716,31.504003 149.36745,51.567074 97.340539,69.676453 57.860039,115.16757 45.697614,171.01989 c -1.877049,8.61979 -2.209262,13.24937 -2.230784,31.08735 -0.02159,17.88984 0.306456,22.60548 2.239987,32.20027 12.131027,60.19799 58.149073,108.90257 117.228513,124.0723 19.21239,4.93313 36.88745,6.07204 60.13118,3.87461 z"
   id="path957" /><path
   style="fill:#9aa0a6;fill-opacity:1;stroke-width:0.99806;stroke:none;stroke-opacity:1"
   d="m 481.53578,507.28091 c -2.72905,-2.16367 -37.48773,-36.11957 -77.24148,-75.45753 -39.75377,-39.33796 -72.76462,-71.52262 -73.35744,-71.52146 -0.59284,10e-4 -5.12003,2.72009 -10.06043,6.04209 -26.33736,17.70961 -44.63178,25.97986 -72.85191,32.93375 -16.21293,3.99511 -31.31305,5.33825 -51.90565,4.61694 -18.78453,-0.658 -29.73261,-2.27011 -45.41175,-6.68694 C 56.298442,370.61278 -5.9957729,281.15707 3.02978,185.14021 5.387217,160.06101 11.008051,139.85121 21.970548,117.03838 33.336182,93.386632 46.353526,75.27017 64.333337,58.081359 127.37551,-2.1873499 218.26344,-15.566695 295.42589,24.062904 c 57.12606,29.339182 96.92379,84.642616 107.32732,149.143446 2.12339,13.16473 2.15547,45.05394 0.0594,59.04462 -4.80781,32.09091 -17.7758,63.24381 -37.6928,90.54912 l -5.77118,7.91202 73.10665,73.4299 c 40.20866,40.38645 74.39594,75.12836 75.97172,77.20426 2.32664,3.06502 2.86508,4.77693 2.86508,9.10915 0,10.84609 -8.14387,19.55506 -19.02199,20.34191 -5.48772,0.39695 -6.01709,0.22353 -10.73433,-3.51642 z M 236.73894,360.31996 c 55.49037,-11.67377 102.32979,-53.62309 119.39808,-106.93277 6.25671,-19.54167 7.55345,-28.25946 7.55345,-50.78092 0,-17.34117 -0.33475,-22.00675 -2.19584,-30.60489 C 354.37029,139.08726 340.05311,112.37931 317.43019,89.80141 289.07908,61.506734 255.76962,46.100946 215.95308,42.867746 168.98941,39.054181 123.81095,55.736023 90.272517,89.274456 67.411435,112.13554 52.60245,139.29462 45.699336,171.01989 c -2.97929,13.69218 -3.188418,45.7512 -0.398109,61.02916 9.783197,53.56655 47.937223,100.01435 98.729823,120.19133 8.60982,3.42018 22.87779,7.40022 34.12274,9.5185 11.60416,2.18595 45.28706,1.35866 58.58515,-1.43892 z"
   id="path959" /></g>
<g
   id="g95">
</g>
<g
   id="g97">
</g>
<g
   id="g99">
</g>
<g
   id="g101">
</g>
<g
   id="g103">
</g>
<g
   id="g105">
</g>
<g
   id="g107">
</g>
<g
   id="g109">
</g>
<g
   id="g111">
</g>
<g
   id="g113">
</g>
<g
   id="g115">
</g>
<g
   id="g117">
</g>
<g
   id="g119">
</g>
<g
   id="g121">
</g>
<g
   id="g123">
</g>
</svg>
